# xmcd
#
# Track frame offsets:
# 150
# 14165
# 33257
# 46637
# 62065
# 78495
# 97395
# 113397
# 131267
# 153392
# 168647
# 179434
#
# Disc length: 2549 seconds
#
#
# Revision: 0
# Processed by: cddbd v1.5PL3 Copyright (c) Steve Scherf et al.
# Submitted via: FreeRIP 2.53 
#
DISCID=9709f30c
DTITLE=VÁRIOS - VIOLA LASCADA
DYEAR=1900
DGENRE=SERTANEJO
TTITLE0=VIOLA E O CARRO DE BOI
TTITLE1=MATARIA
TTITLE2=O CAIPIRA QUE FOI NA LUA
TTITLE3=GARIMPEIRO
TTITLE4=PEÃO DA CIDADE
TTITLE5=POTRO ASSASSINO
TTITLE6=REI DO GADO
TTITLE7=O PREÇO DA MENTIRA
TTITLE8=PEDIDO A N. SENHORA DA APARECIDA
TTITLE9=MULHER DO CACHACEIRO
TTITLE10=MESTIÇO TRAIÇOEIRO
TTITLE11=CANTINHO COLORIDO
EXTD=
EXTT0=
EXTT1=
EXTT2=
EXTT3=
EXTT4=
EXTT5=
EXTT6=
EXTT7=
EXTT8=
EXTT9=
EXTT10=
EXTT11=
PLAYORDER=
